# xmcd
#
# Track frame offsets:
#	150
#	17112
#	28146
#	41002
#	57857
#	69882
#	82268
#	97226
#	109112
#	120912
#	139747
#	156574
#	174553
#	192740
#	205811
#	219650
#	233303
#	244482
#	257757
#	267788
#	289682
#	299672
#
# Disc length: 4197 seconds
#
# Revision: 0
# Processed by: cddbd v1.4PL0 Copyright (c) Steve Scherf et al.
# Submitted via: MusicWizard 6.0.1
#
DISCID=54106316
DTITLE=Various Artist - Johnny Cash - A Boy Named Sue
DYEAR=1900
DGENRE=Country
TTITLE0=Johnny Cash - A Boy Named Sue
TTITLE1=Johnny Cash - Daddy Sang Bass
TTITLE2=Johnny Cash - Folsom Prison Blues
TTITLE3=Johnny Cash - Ghost Riders In The Sky
TTITLE4=Johnny Cash - I Walk The Line
TTITLE5=Johnny Cash - I'm So Lonesome I Could Cry
TTITLE6=Johnny Cash - I've Been Everywhere
TTITLE7=Johnny Cash - Ring Of Fire
TTITLE8=Johnny Cash - Take This Job And Shoveit
TTITLE9=Faith Hill - Breathe
TTITLE10=Faith Hill - There You'll Be
TTITLE11=Gorge Fox - I Give You My Word
TTITLE12=Verdi - Anvil Chorus
TTITLE13=Verdi - Anvil Chorus
TTITLE14=Waylon Jennings - Good Hearted Woman
TTITLE15=Waylon Jennings - Amanda
TTITLE16=Waylon Jennings - Mama's Don't Let Your Babys Grow Up To Be Cowboys
TTITLE17=Waylon Jennings - Poncho And Lefty
TTITLE18=Waylon Jennings - Just Good Ol' Boys
TTITLE19=Waylon Jennings - Me And Jimmy Rogers
TTITLE20=Trick Pony - Big River
TTITLE21=Trick Pony - Just What I Do
EXTD=
EXTT0=
EXTT1=
EXTT2=
EXTT3=
EXTT4=
EXTT5=
EXTT6=
EXTT7=
EXTT8=
EXTT9=
EXTT10=
EXTT11=
EXTT12=
EXTT13=
EXTT14=
EXTT15=
EXTT16=
EXTT17=
EXTT18=
EXTT19=
EXTT20=
EXTT21=
PLAYORDER=
